<svg xmlns="http://www.w3.org/2000/svg" width="33" height="32" viewBox="0 0 33 32"><path fill="#ff5243" d="M29.83 3H25.5V1a1 1 0 1 0-2 0v2h-6V1a1 1 0 1 0-2 0v2h-6V1a1 1 0 1 0-2 0v2H3.17A2.67 2.67 0 0 0 .5 5.67v23.66C.5 30.81 1.7 32 3.17 32h26.66c1.48 0 2.67-1.2 2.67-2.67V5.67C32.5 4.19 31.3 3 29.83 3zm.67 26.33c0 .37-.3.67-.67.67H3.17a.67.67 0 0 1-.67-.67V5.67c0-.37.3-.67.67-.67H7.5v2a1 1 0 1 0 2 0V5h6v2a1 1 0 1 0 2 0V5h6v2a1 1 0 1 0 2 0V5h4.33c.37 0 .67.3.67.67zM12 15v-3H8v3zm0 5v-3H8v3zm0 5v-3H8v3zm7 0v-3h-4v3zm0-5v-3h-4v3zm0-5v-3h-4v3zm7 10v-3h-4v3zm0-5v-3h-4v3zm0-5v-3h-4v3z"/></svg>