<svg xmlns="http://www.w3.org/2000/svg" width="50" height="41" viewBox="0 0 50 41"><path fill="#ff5243" d="M46.1 5.9H35.56V4.01A4.03 4.03 0 0 0 31.52 0H18.48a4.03 4.03 0 0 0-4.04 4.02v1.87H3.9A3.9 3.9 0 0 0 0 9.8V37.1A3.9 3.9 0 0 0 3.9 41h42.2a3.9 3.9 0 0 0 3.9-3.89V9.78a3.9 3.9 0 0 0-3.9-3.89zM17.85 4.01c0-.35.28-.63.63-.63h13.04c.35 0 .63.28.63.63V5.9h-14.3zM3.9 9.29h42.2c.27 0 .5.22.5.5v8.9c-5.29 1.95-13.26 3.1-21.61 3.1-8.34 0-16.3-1.15-21.58-3.1V9.8c0-.28.22-.5.5-.5zM46.1 37.6H3.9a.5.5 0 0 1-.5-.5V22.3c4.84 1.6 11.2 2.58 18.12 2.83v.81c0 1.4 1.15 2.54 2.56 2.54h1.84c1.41 0 2.56-1.14 2.56-2.54v-.75-.06c6.93-.25 13.28-1.25 18.11-2.84v14.83a.5.5 0 0 1-.5.5z"/></svg>