<svg xmlns="http://www.w3.org/2000/svg" width="20" height="19" viewBox="0 0 20 19"><path fill="#ff5243" d="M16.5 0h-13A3.5 3.5 0 0 0 0 3.47v7.93a3.5 3.5 0 0 0 3.5 3.48h8.28l3.96 3.92a.71.71 0 0 0 .76.15.7.7 0 0 0 .44-.64v-3.46A3.49 3.49 0 0 0 20 11.4V3.47A3.5 3.5 0 0 0 16.5 0zm2.1 11.4a2.1 2.1 0 0 1-2.1 2.09h-.27a.7.7 0 0 0-.7.7v2.44l-2.97-2.94a.7.7 0 0 0-.5-.2H3.52a2.1 2.1 0 0 1-2.1-2.09V3.47A2.1 2.1 0 0 1 3.5 1.4h12.98c1.16 0 2.1.93 2.1 2.08zm-3.44-6.48H4.84a.7.7 0 0 0-.7.7c0 .38.31.69.7.69h10.32a.7.7 0 0 0 .7-.7.7.7 0 0 0-.7-.7zm0 3.89H4.84a.7.7 0 0 0-.7.69c0 .38.31.7.7.7h10.32a.7.7 0 0 0 .7-.7.7.7 0 0 0-.7-.7z"/></svg>