<svg xmlns="http://www.w3.org/2000/svg" width="20" height="21" viewBox="0 0 20 21"><path fill="#fff" d="M14.48 1H5.52A5.53 5.53 0 0 0 0 6.52v8.96A5.53 5.53 0 0 0 5.52 21h8.96A5.53 5.53 0 0 0 20 15.48V6.52A5.53 5.53 0 0 0 14.48 1zm0 18.23H5.52a3.75 3.75 0 0 1-3.75-3.75V6.52a3.75 3.75 0 0 1 3.75-3.75h8.96a3.75 3.75 0 0 1 3.75 3.75v8.96a3.75 3.75 0 0 1-3.75 3.75zM10 5.85a5.16 5.16 0 1 0 .01 10.31A5.16 5.16 0 0 0 10 5.85zm0 8.53a3.39 3.39 0 0 1 0-6.76 3.39 3.39 0 0 1 0 6.76zm5.37-10.04a1.3 1.3 0 0 0-1.3 1.3c0 .35.14.68.38.92s.58.38.92.38c.34 0 .68-.14.92-.38s.38-.57.38-.92a1.3 1.3 0 0 0-1.3-1.3z"/></svg>