<svg xmlns="http://www.w3.org/2000/svg" width="40" height="50" viewBox="0 0 40 50"><path fill="#ff5243" d="M23.5 3.57c1.33 0 2.7.91 3.1 3.02a19.88 19.88 0 0 1-2.08 13.29h7.68a4.23 4.23 0 0 1 4.24 4.1c0 2.28-1.54 4.12-3.02 4.12a4.1 4.1 0 0 1-2.04 5.92 4.1 4.1 0 0 1-2.68 6.25 4.1 4.1 0 0 1-3.55 6.15h-4.34c-12.86 0-10.44-4.47-17.25-4.47V25c4.35 0 8.13-.24 11.93-6.26 2.66-4.21 4.37-6.87 5.09-12.57a2.93 2.93 0 0 1 2.92-2.6c1.38 0 0 0 0 0zm-4.18-2.05a6.51 6.51 0 0 0-2.28 4.2c-.6 4.84-1.97 7.01-4.45 10.95l-.1.16c-2.9 4.6-5.17 4.6-8.93 4.6A3.56 3.56 0 0 0 0 25v16.95c0 1.97 1.6 3.57 3.56 3.57 1.82 0 2.38.36 3.6 1.15 1.04.67 2.47 1.6 4.7 2.27 2.35.71 5.28 1.06 8.95 1.06h4.35a7.68 7.68 0 0 0 7.65-7.69v-.15a7.69 7.69 0 0 0 2.73-6.78 7.65 7.65 0 0 0 2-5.46 8.25 8.25 0 0 0 2.46-5.93 7.81 7.81 0 0 0-7.8-7.68h-2.45a23.7 23.7 0 0 0 .35-10.4 7.54 7.54 0 0 0-2.35-4.3 6.43 6.43 0 0 0-8.43-.1z"/></svg>