<svg xmlns="http://www.w3.org/2000/svg" width="15" height="21" viewBox="0 0 15 21"><path fill="#fff" d="M7.5 1C3.36 1 0 4.54 0 8.89c0 1.6.45 3.14 1.31 4.46a7.6 7.6 0 0 0 3.16 2.75l2.44 4.54c.12.22.35.36.59.36s.47-.14.59-.36l2.44-4.54a7.6 7.6 0 0 0 3.15-2.75A8.13 8.13 0 0 0 15 8.89C15 4.54 11.63 1 7.5 1zm2.3 13.89a.69.69 0 0 0-.33.3L7.5 18.85l-1.97-3.66a.69.69 0 0 0-.33-.3 6.45 6.45 0 0 1-3.85-6c0-3.57 2.76-6.47 6.15-6.47 3.4 0 6.15 2.9 6.15 6.47 0 2.65-1.51 5-3.85 6zM7.5 5.87a2.91 2.91 0 0 0-2.83 2.97 2.91 2.91 0 0 0 2.83 2.98 2.91 2.91 0 0 0 2.83-2.98A2.91 2.91 0 0 0 7.5 5.87zm0 4.53c-.82 0-1.48-.7-1.48-1.56 0-.86.66-1.56 1.48-1.56s1.48.7 1.48 1.56c0 .86-.66 1.56-1.48 1.56z"/></svg>