<svg xmlns="http://www.w3.org/2000/svg" width="30" height="30" viewBox="0 0 30 30"><path fill="#fff" d="M26.7 3.3A11.2 11.2 0 0 0 18.72 0a11.2 11.2 0 0 0-7.98 3.3 11.22 11.22 0 0 0-3.3 7.98c0 2.06.55 4.03 1.57 5.75L.8 25.24a2.72 2.72 0 0 0 0 3.86l.1.1c.52.52 1.2.8 1.93.8a2.7 2.7 0 0 0 1.93-.8l8.2-8.21a11.25 11.25 0 0 0 13.74-1.73 11.22 11.22 0 0 0 3.3-7.98c0-3.01-1.17-5.85-3.3-7.98zM3.38 27.82a.76.76 0 0 1-.55.23c-.2 0-.4-.08-.55-.23l-.1-.1a.77.77 0 0 1 0-1.1l7.98-7.99a9.39 9.39 0 0 0 1.2 1.21zm21.94-9.94a9.28 9.28 0 0 1-6.6 2.73c-2.5 0-4.84-.97-6.6-2.73a9.27 9.27 0 0 1-2.73-6.6 9.28 9.28 0 0 1 9.33-9.33c2.5 0 4.84.97 6.6 2.73a9.27 9.27 0 0 1 2.73 6.6c0 2.49-.97 4.84-2.73 6.6zm-2.08-5.65V10.1h-3.4V6.36h-2.35v3.74h-3.4v2.13h3.4v3.91h2.35v-3.91z"/></svg>