<svg xmlns="http://www.w3.org/2000/svg" width="50" height="40" viewBox="0 0 50 40"><path fill="#ff5243" d="M15.4 17.79H1.55c-.86 0-1.56.7-1.56 1.55 0 4.64 3.8 8.41 8.48 8.41a8.46 8.46 0 0 0 8.47-8.41c0-.86-.7-1.55-1.56-1.55zm-6.92 6.87a5.36 5.36 0 0 1-5.13-3.77H13.6a5.36 5.36 0 0 1-5.13 3.77zm39.96-6.87H34.61c-.86 0-1.56.7-1.56 1.55 0 4.64 3.8 8.41 8.47 8.41A8.46 8.46 0 0 0 50 19.34c0-.86-.7-1.55-1.56-1.55zm-6.92 6.87a5.36 5.36 0 0 1-5.12-3.77h10.25a5.36 5.36 0 0 1-5.13 3.77zM30.15 36.9h-3.59V6.58c1.39-.17 2.98-.5 4.64-.86 1.91-.4 3.9-.82 5.56-.97 2.1-.18 2.78.16 2.98.32.05.04.16.13.2.42l-2.96 9.8a1.56 1.56 0 1 0 2.99.9l1.55-5.14 1.55 5.14a1.56 1.56 0 0 0 3-.9l-3-9.9a3.7 3.7 0 0 0-1.37-2.73c-2.3-1.85-6.6-.93-11.16.03-1.43.3-2.82.6-3.98.76v-1.9C26.56.69 25.86 0 25 0c-.86 0-1.56.7-1.56 1.55v1.9a60.87 60.87 0 0 1-3.98-.76C14.9 1.73 10.6.81 8.3 2.66A3.71 3.71 0 0 0 6.93 5.4l-3 9.9a1.56 1.56 0 1 0 2.99.9l1.56-5.14 1.55 5.14a1.56 1.56 0 0 0 2.99-.9l-2.97-9.8c.05-.29.16-.38.2-.42.2-.16.89-.5 3-.32 1.66.15 3.64.57 5.55.97 1.66.35 3.25.7 4.64.86V36.9h-3.59c-.86 0-1.56.7-1.56 1.55 0 .86.7 1.55 1.56 1.55h10.3c.86 0 1.56-.7 1.56-1.55 0-.85-.7-1.55-1.56-1.55z"/></svg>