<svg xmlns="http://www.w3.org/2000/svg" width="15" height="16" viewBox="0 0 15 16"><path fill="#1b1e28" d="M14.92 3.64a3.68 3.68 0 0 0-1.3-2.47L13.2.8a3.47 3.47 0 0 0-4.98.55l-6.5 8.31a3.74 3.74 0 0 0 .53 5.16l.42.35a3.47 3.47 0 0 0 4.97-.52l4.38-5.61c.78-1 .63-2.47-.33-3.28l-.22-.18a2.2 2.2 0 0 0-3.16.34l-4.38 5.6c-.28.37-.23.9.12 1.2.15.13.33.2.52.2.25 0 .49-.12.64-.32L9.6 7a.6.6 0 0 1 .84-.1l.22.2a.63.63 0 0 1 .09.88l-4.37 5.58a1.86 1.86 0 0 1-2.66.29l-.42-.36A2 2 0 0 1 3 10.74l6.5-8.3a1.86 1.86 0 0 1 2.66-.3l.42.36c.81.68.94 1.91.28 2.75-.14.18-.2.4-.18.63.02.23.13.43.3.57a.81.81 0 0 0 1.16-.13c.6-.75.87-1.7.77-2.68z"/></svg>