<svg xmlns="http://www.w3.org/2000/svg" width="21" height="21" viewBox="0 0 21 21"><path fill="#fff" d="M15.42 21c-1.54 0-2.76-1.02-3.65-1.9L2.3 9.6C1.49 8.8.56 7.72.4 6.37c-.16-1.35.46-2.7 1.89-4.13A3.8 3.8 0 0 1 5 1c2.34 0 4.12 2.43 4.27 2.64.8 1.05.46 2.32.16 3.44-.31 1.2-.48 1.96.07 2.5l2.28 2.28c.25.25.54.36.95.36.46 0 1-.14 1.55-.29.62-.16 1.25-.33 1.88-.33.6 0 1.13.17 1.57.5.2.14 2.43 1.78 2.62 3.97.1 1.1-.32 2.11-1.23 3.02-1.28 1.29-2.5 1.91-3.71 1.91zM5 2.4c-.6 0-1.17.28-1.73.84C2.18 4.34 1.69 5.3 1.8 6.2c.08.73.54 1.47 1.48 2.4l9.49 9.5c1.03 1.03 1.85 1.5 2.65 1.5.82 0 1.71-.5 2.72-1.5.6-.61.88-1.23.82-1.9-.13-1.6-2.02-2.95-2.04-2.96l-.02-.02c-.2-.14-.43-.21-.73-.21-.44 0-.96.14-1.52.28a7.6 7.6 0 0 1-1.91.34c-.78 0-1.44-.26-1.95-.77l-2.27-2.28c-1.16-1.15-.76-2.65-.44-3.86.29-1.08.44-1.77.07-2.24l-.01-.02C8.13 4.44 6.67 2.4 5 2.4z"/></svg>