<svg xmlns="http://www.w3.org/2000/svg" width="38" height="50" viewBox="0 0 38 50"><path fill="#ff5243" d="M28.64 25.96h-2.01A14.11 14.11 0 0 0 19 0a14.1 14.1 0 0 0-7.63 25.96H9.36A9.38 9.38 0 0 0 0 35.34v13.1C0 49.3.7 50 1.56 50h34.88c.86 0 1.56-.7 1.56-1.56v-13.1c0-5.17-4.2-9.38-9.36-9.38zM8.03 14.11A11 11 0 0 1 19 3.12a11 11 0 0 1 0 21.98 11 11 0 0 1-10.97-11zm15.53 13.35L19 32.02l-4.56-4.56a14.02 14.02 0 0 0 9.12 0zm11.33 19.42h-4.24v-7.5a1.56 1.56 0 0 0-3.12 0v7.5H10.47v-7.5a1.56 1.56 0 0 0-3.12 0v7.5H3.11V35.34a6.27 6.27 0 0 1 6.25-6.26h2.3l6.24 6.25a1.54 1.54 0 0 0 2.2 0l6.24-6.25h2.3c3.44 0 6.25 2.8 6.25 6.26z"/></svg>