<svg xmlns="http://www.w3.org/2000/svg" width="21" height="12" viewBox="0 0 21 12"><path fill="#fff" d="M19.83 8.91c-.6-.7-1.3-1.29-1.96-1.91-.6-.57-.64-.9-.16-1.56.53-.71 1.09-1.4 1.62-2.1.5-.67 1-1.34 1.26-2.13.17-.5.02-.73-.51-.82L19.8.37h-3.17c-.39 0-.61.16-.75.5-.18.45-.38.9-.6 1.34-.5 1-1.06 1.96-1.85 2.77-.18.18-.37.4-.66.32-.36-.13-.47-.72-.47-.91V.83c-.07-.5-.18-.73-.7-.83H8.3c-.44 0-.66.17-.89.43-.14.16-.18.26.1.3.55.1.86.45.94.99.13.85.12 1.7.04 2.55-.02.25-.06.5-.16.74-.16.36-.42.44-.76.21-.3-.2-.52-.5-.73-.78A16.84 16.84 0 0 1 4.91.96C4.76.6 4.5.39 4.12.38H1.26C.69.4.52.66.75 1.17a34.12 34.12 0 0 0 3.7 6.4 9.11 9.11 0 0 0 2.8 2.55c1.3.72 2.7.94 4.17.87.69-.03.9-.2.93-.87.02-.46.08-.92.31-1.33.22-.4.57-.48.97-.22.2.12.36.28.52.45.39.41.76.84 1.17 1.23.5.5 1.1.8 1.85.74h2.92c.46-.03.71-.59.44-1.1a5.67 5.67 0 0 0-.7-.98z"/></svg>